<?xml version="1.0" encoding="UTF-8" standalone="no"?>
<!-- Created with Inkscape (http://www.inkscape.org/) -->

<svg
   xmlns:dc="http://purl.org/dc/elements/1.1/"
   xmlns:cc="http://creativecommons.org/ns#"
   xmlns:rdf="http://www.w3.org/1999/02/22-rdf-syntax-ns#"
   xmlns:svg="http://www.w3.org/2000/svg"
   xmlns="http://www.w3.org/2000/svg"
   xmlns:sodipodi="http://sodipodi.sourceforge.net/DTD/sodipodi-0.dtd"
   xmlns:inkscape="http://www.inkscape.org/namespaces/inkscape"
   width="210mm"
   height="297mm"
   id="svg2"
   version="1.1"
   inkscape:version="0.48.3.1 r9886"
   sodipodi:docname="Documento nuevo 1">
  <defs
     id="defs4">
    <filter
       id="filter3071"
       inkscape:label="Refractive gel A"
       inkscape:menu="Ridges"
       inkscape:menu-tooltip="Gel effect with light refraction"
       height="1.4"
       width="1.4"
       y="-0.2"
       x="-0.2"
       color-interpolation-filters="sRGB">
      <feOffset
         id="feOffset3073"
         dx="7"
         dy="7"
         in="SourceAlpha"
         result="result3" />
      <feGaussianBlur
         id="feGaussianBlur3075"
         stdDeviation="8"
         in="result3"
         result="result1" />
      <feComposite
         id="feComposite3077"
         in2="result1"
         operator="in"
         in="SourceGraphic"
         result="result2" />
      <feComposite
         id="feComposite3079"
         in2="result2"
         operator="out"
         result="fbSourceGraphic"
         in="result2" />
      <feColorMatrix
         id="feColorMatrix3081"
         result="fbSourceGraphicAlpha"
         in="fbSourceGraphic"
         values="0 0 0 -1 0 0 0 0 -1 0 0 0 0 1 0 0 0 0 4 0 " />
      <feGaussianBlur
         id="feGaussianBlur3083"
         result="result0"
         in="fbSourceGraphicAlpha"
         stdDeviation="2" />
      <feSpecularLighting
         id="feSpecularLighting3085"
         specularExponent="20"
         specularConstant="1.2"
         surfaceScale="3"
         lighting-color="rgb(255,255,255)"
         result="result1"
         in="result0">
        <feDistantLight
           id="feDistantLight3087"
           azimuth="235"
           elevation="45" />
      </feSpecularLighting>
      <feComposite
         id="feComposite3089"
         in2="fbSourceGraphicAlpha"
         operator="in"
         result="result2"
         in="result1" />
      <feComposite
         id="feComposite3091"
         in2="result2"
         in="fbSourceGraphic"
         operator="arithmetic"
         k2="2"
         k3="2"
         result="result91" />
      <feBlend
         id="feBlend3093"
         in2="result91"
         mode="multiply" />
    </filter>
    <filter
       id="filter3095"
       inkscape:label="Refractive gel B"
       inkscape:menu="Ridges"
       inkscape:menu-tooltip="Gel effect with strong refraction"
       height="1.4"
       width="1.4"
       y="-0.2"
       x="-0.2"
       color-interpolation-filters="sRGB">
      <feOffset
         id="feOffset3097"
         dx="3"
         dy="3"
         in="SourceAlpha"
         result="result3" />
      <feGaussianBlur
         id="feGaussianBlur3099"
         stdDeviation="8"
         in="result3"
         result="result1" />
      <feComposite
         id="feComposite3101"
         in2="result1"
         operator="in"
         in="SourceGraphic"
         result="result2" />
      <feComposite
         id="feComposite3103"
         in2="result2"
         operator="out"
         result="fbSourceGraphic"
         in="result2" />
      <feColorMatrix
         id="feColorMatrix3105"
         result="fbSourceGraphicAlpha"
         in="fbSourceGraphic"
         values="0 0 0 -1 0 0 0 0 -1 0 0 0 0 1 0 0 0 0 6 0 " />
      <feGaussianBlur
         id="feGaussianBlur3107"
         result="result0"
         in="fbSourceGraphicAlpha"
         stdDeviation="3" />
      <feSpecularLighting
         id="feSpecularLighting3109"
         specularExponent="20"
         specularConstant="2"
         surfaceScale="5"
         lighting-color="rgb(255,255,255)"
         result="result1"
         in="result0">
        <feDistantLight
           id="feDistantLight3111"
           azimuth="235"
           elevation="35" />
      </feSpecularLighting>
      <feComposite
         id="feComposite3113"
         in2="fbSourceGraphicAlpha"
         operator="in"
         result="result2"
         in="result1" />
      <feComposite
         id="feComposite3115"
         in2="result2"
         in="fbSourceGraphic"
         operator="arithmetic"
         k2="1.5"
         k3="3"
         result="result91" />
      <feBlend
         id="feBlend3117"
         in2="result91"
         mode="screen" />
      <feConvolveMatrix
         id="feConvolveMatrix3119"
         order="3 3"
         kernelMatrix="2 0 1 0 1 0 0 0 0 "
         targetX="1"
         targetY="1"
         divisor="3" />
    </filter>
    <filter
       id="filter3147"
       inkscape:label="Refractive gel A"
       inkscape:menu="Ridges"
       inkscape:menu-tooltip="Gel effect with light refraction"
       height="1.4"
       width="1.4"
       y="-0.2"
       x="-0.2"
       color-interpolation-filters="sRGB">
      <feOffset
         id="feOffset3149"
         dx="7"
         dy="7"
         in="SourceAlpha"
         result="result3" />
      <feGaussianBlur
         id="feGaussianBlur3151"
         stdDeviation="8"
         in="result3"
         result="result1" />
      <feComposite
         id="feComposite3153"
         in2="result1"
         operator="in"
         in="SourceGraphic"
         result="result2" />
      <feComposite
         id="feComposite3155"
         in2="result2"
         operator="out"
         result="fbSourceGraphic"
         in="result2" />
      <feColorMatrix
         id="feColorMatrix3157"
         result="fbSourceGraphicAlpha"
         in="fbSourceGraphic"
         values="0 0 0 -1 0 0 0 0 -1 0 0 0 0 1 0 0 0 0 4 0 " />
      <feGaussianBlur
         id="feGaussianBlur3159"
         result="result0"
         in="fbSourceGraphicAlpha"
         stdDeviation="2" />
      <feSpecularLighting
         id="feSpecularLighting3161"
         specularExponent="20"
         specularConstant="1.2"
         surfaceScale="3"
         lighting-color="rgb(255,255,255)"
         result="result1"
         in="result0">
        <feDistantLight
           id="feDistantLight3163"
           azimuth="235"
           elevation="45" />
      </feSpecularLighting>
      <feComposite
         id="feComposite3165"
         in2="fbSourceGraphicAlpha"
         operator="in"
         result="result2"
         in="result1" />
      <feComposite
         id="feComposite3167"
         in2="result2"
         in="fbSourceGraphic"
         operator="arithmetic"
         k2="2"
         k3="2"
         result="result91" />
      <feBlend
         id="feBlend3169"
         in2="result91"
         mode="multiply" />
    </filter>
    <filter
       id="filter3171"
       inkscape:label="Refractive gel A"
       inkscape:menu="Ridges"
       inkscape:menu-tooltip="Gel effect with light refraction"
       height="1.4"
       width="1.4"
       y="-0.2"
       x="-0.2"
       color-interpolation-filters="sRGB">
      <feOffset
         id="feOffset3173"
         dx="7"
         dy="7"
         in="SourceAlpha"
         result="result3" />
      <feGaussianBlur
         id="feGaussianBlur3175"
         stdDeviation="8"
         in="result3"
         result="result1" />
      <feComposite
         id="feComposite3177"
         in2="result1"
         operator="in"
         in="SourceGraphic"
         result="result2" />
      <feComposite
         id="feComposite3179"
         in2="result2"
         operator="out"
         result="fbSourceGraphic"
         in="result2" />
      <feColorMatrix
         id="feColorMatrix3181"
         result="fbSourceGraphicAlpha"
         in="fbSourceGraphic"
         values="0 0 0 -1 0 0 0 0 -1 0 0 0 0 1 0 0 0 0 4 0 " />
      <feGaussianBlur
         id="feGaussianBlur3183"
         result="result0"
         in="fbSourceGraphicAlpha"
         stdDeviation="2" />
      <feSpecularLighting
         id="feSpecularLighting3185"
         specularExponent="20"
         specularConstant="1.2"
         surfaceScale="3"
         lighting-color="rgb(255,255,255)"
         result="result1"
         in="result0">
        <feDistantLight
           id="feDistantLight3187"
           azimuth="235"
           elevation="45" />
      </feSpecularLighting>
      <feComposite
         id="feComposite3189"
         in2="fbSourceGraphicAlpha"
         operator="in"
         result="result2"
         in="result1" />
      <feComposite
         id="feComposite3191"
         in2="result2"
         in="fbSourceGraphic"
         operator="arithmetic"
         k2="2"
         k3="2"
         result="result91" />
      <feBlend
         id="feBlend3193"
         in2="result91"
         mode="multiply" />
    </filter>
  </defs>
  <sodipodi:namedview
     id="base"
     pagecolor="#ffffff"
     bordercolor="#666666"
     borderopacity="1.0"
     inkscape:pageopacity="0.0"
     inkscape:pageshadow="2"
     inkscape:zoom="0.35"
     inkscape:cx="350"
     inkscape:cy="520"
     inkscape:document-units="px"
     inkscape:current-layer="layer1"
     showgrid="false"
     inkscape:window-width="1366"
     inkscape:window-height="705"
     inkscape:window-x="-8"
     inkscape:window-y="-8"
     inkscape:window-maximized="1" />
  <metadata
     id="metadata7">
    <rdf:RDF>
      <cc:Work
         rdf:about="">
        <dc:format>image/svg+xml</dc:format>
        <dc:type
           rdf:resource="http://purl.org/dc/dcmitype/StillImage" />
        <dc:title></dc:title>
      </cc:Work>
    </rdf:RDF>
  </metadata>
  <g
     inkscape:label="Capa 1"
     inkscape:groupmode="layer"
     id="layer1">
    <path
       style="fill:#000080;fill-opacity:1;filter:url(#filter3071)"
       id="path2985"
       d="m 90.038304,215.23399 c 1.005056,-0.5817 1.974556,-1.2297 3.015168,-1.7451 10.689248,-5.29426 -2.895795,2.20457 8.252758,-4.2895 1.42188,-0.82826 5.73107,-3.23706 4.30333,-2.41894 -33.913932,19.43319 -42.270647,25.11242 -28.329147,15.84103 6.99557,-4.76487 13.670254,-10.03778 19.514682,-16.16909 5.537675,-5.30418 9.626265,-11.64016 13.744435,-18.03417 4.31595,-6.31979 7.61355,-13.19775 10.7098,-20.16994 3.28726,-6.93794 4.55749,-14.40694 5.29635,-21.97237 0.31821,-7.42504 1.69546,-14.73793 2.43134,-22.12469 1.20713,-17.66295 -3.04549,-5.73363 38.44254,-22.33581 0.0534,-0.0214 1.52363,8.71417 1.59228,9.20907 0.55525,7.70513 2.21202,15.27331 4.54247,22.62269 2.30794,7.5689 4.01725,15.43786 7.97924,22.35089 3.65513,6.11058 9.024,10.86293 14.19145,15.66247 5.05212,4.07913 11.20873,6.10893 17.50564,7.26956 4.47774,0.33536 9.23174,1.65481 13.70277,0.51366 1.91652,-0.48916 3.69214,-1.4236 5.56598,-2.05688 13.66617,-9.24609 -0.93297,0.73369 -30.28975,16.9794 -1.11312,0.61598 2.08973,-1.45571 3.07607,-2.25919 3.184,-2.59374 5.96132,-5.59953 8.69845,-8.64334 4.74086,-5.30523 8.41562,-11.27376 11.51796,-17.64135 2.4632,-5.60091 3.51583,-11.6683 3.88105,-17.74232 -5.91314,-13.94302 -1.38111,-2.35881 38.18906,-18.5216 0.0872,-0.0356 0.008,0.9499 -0.0568,4.37391 -0.0457,2.4331 -0.0519,3.80455 -0.0741,6.26123 0.22005,7.65097 3.14581,14.86322 5.31364,22.1145 1.87565,7.7009 4.28111,15.28032 7.55212,22.504 2.96386,8.28174 7.79306,15.64652 11.86311,23.37997 4.10666,6.88245 8.94791,13.05564 14.85558,18.46881 0,0 -35.89684,22.11265 -35.89684,22.11265 l 0,0 c -5.99058,-5.93805 -11.14635,-12.4205 -15.37868,-19.7405 -4.11879,-7.79767 -9.06701,-15.18736 -12.05423,-23.55026 -3.3781,-7.37417 -6.07169,-15.10056 -7.89027,-23.00908 -2.17058,-7.65596 -5.27009,-15.13491 -5.99763,-23.1216 -0.0489,-23.27246 -2.88778,-7.7809 38.34329,-29.51202 0.2605,-0.1373 -0.41962,-0.41322 -0.62943,-0.61983 -1.13696,6.38191 -1.36665,12.95419 -3.66603,19.09582 -2.90302,6.70796 -6.19915,13.20893 -11.18961,18.64212 -12.83141,17.62916 -33.99937,28.15435 -53.59603,36.26509 -6.79318,1.86714 -13.61895,1.20024 -20.4651,-0.26221 -6.8521,-1.72858 -13.50377,-4.30274 -18.78102,-9.16927 -5.36182,-5.18709 -11.0642,-10.20126 -14.7714,-16.77806 -4.02048,-7.20975 -6.1402,-15.19455 -8.37924,-23.10082 -2.46949,-7.53001 -4.32995,-15.30293 -5.00841,-23.21356 -0.34483,-2.54385 -0.4425,-3.62089 -0.95827,-6.09275 -0.15535,-0.74449 -1.18343,-1.80788 -0.54188,-2.21631 48.28762,-30.741208 38.45434,-34.125129 36.55206,-17.01677 -0.68069,7.39337 -2.02636,14.69701 -2.50819,22.09326 -0.51359,7.93275 -1.54972,15.86487 -4.72568,23.23153 -3.03015,7.16056 -6.11361,14.30135 -10.38968,20.82174 -4.27911,6.37535 -7.62316,13.44146 -13.58859,18.50626 -5.16838,6.92783 -12.2787,12.10705 -19.14231,17.27475 -18.882084,12.96877 -39.189898,23.76661 -59.442609,34.42443 0,0 33.118303,-26.49151 33.118303,-26.49151 z"
       inkscape:connector-curvature="0" />
    <path
       style="fill:#aa8800;fill-opacity:1;filter:url(#filter3147)"
       id="path2987"
       d="m 258.25765,459.59233 c 0.32015,-8.80953 0.17038,-17.62599 0.17482,-26.43889 -0.0571,-7.70963 -0.0416,-15.41925 -0.0675,-23.12895 0.0144,-7.37637 0.006,-14.75273 0.005,-22.1291 -0.35265,-7.87006 1.34053,-15.53435 3.45824,-23.05262 2.7113,-7.92359 6.61292,-15.42085 11.05616,-22.50304 4.23001,-6.97562 9.96841,-12.20974 16.80617,-16.50171 26.46987,-18.7513 34.06536,-21.72871 58.17798,-26.74148 7.61803,-1.70472 15.22078,-1.74633 22.91812,-0.8883 7.50983,1.46602 14.44534,3.80345 20.34308,8.73909 6.37289,5.16787 10.92796,12.07625 14.94419,19.13664 4.05366,7.1886 6.808,14.83996 8.53481,22.88471 1.25734,7.48282 1.29211,15.08288 1.37696,22.64706 0.45891,7.49277 -0.7848,14.87903 -1.67001,22.28518 -0.88722,7.33209 -1.04074,14.71721 -1.20617,22.09169 -0.0879,7.33164 -0.0859,14.66368 -0.0519,21.99566 -0.007,6.18357 -0.0141,12.36714 -0.01,18.55072 0,0 -37.52876,19.1238 -37.52876,19.1238 l 0,0 c -9.2e-4,-6.175 -0.0154,-12.35003 -0.0359,-18.52499 0.0206,-7.35848 -0.0129,-14.71692 0.0558,-22.07515 0.0643,-7.49864 0.2877,-15.00994 1.03419,-22.47475 0.81166,-7.26687 2.26591,-14.47436 1.87547,-21.81709 -0.007,-7.31781 -0.01,-14.67028 -1.01465,-21.93343 -1.39491,-7.68641 -3.92501,-14.9091 -7.76602,-21.74079 -3.83621,-6.58337 -8.07487,-13.05207 -14.25348,-17.68953 -5.51137,-4.07185 -12.18253,-5.83786 -18.91461,-6.75679 -7.46702,-0.51135 -14.87823,0.2374 -22.17783,1.9168 -3.59266,0.79084 -7.25663,1.44825 -10.79615,2.45968 -13.97359,3.99302 -33.49507,18.68823 25.44313,-16.35961 -6.81283,3.97343 -13.26953,7.87014 -17.54798,14.79782 -4.65769,6.65761 -8.47468,13.89421 -11.55052,21.39768 -2.34784,7.05895 -4.14068,14.41231 -3.95402,21.90194 -0.001,7.37477 -0.01,14.74953 0.005,22.1243 -0.0259,7.73262 -0.0105,15.46517 -0.0675,23.19772 0.004,8.75349 -0.14767,17.51075 0.17482,26.26075 0,0 -37.77041,19.24498 -37.77041,19.24498 z"
       inkscape:connector-curvature="0" />
    <path
       style="fill:#aa8800;fill-opacity:1"
       id="path2989"
       d="m 371.59794,382.80017 c 17.55775,0.4792 35.12849,0.44806 52.69172,0.36311 10.68619,-0.0871 5.54823,-0.0402 15.41389,-0.13859 0,0 -33.56896,24.38928 -33.56896,24.38928 l 0,0 c -9.60866,-0.0986 -4.59788,-0.0516 -15.03237,-0.1386 -17.89659,-0.0877 -35.79974,-0.10212 -53.69128,0.36311 0,0 34.187,-24.83831 34.187,-24.83831 z"
       inkscape:connector-curvature="0" />
    <path
       style="fill:#000080;fill-opacity:1;filter:url(#filter3095)"
       id="path2991"
       d="m 439.08644,544.86614 c 1.75816,8.95859 3.37624,17.91678 4.38727,26.99274 0.83452,7.88594 0.9872,15.82172 1.02346,23.74498 0.0626,7.31935 0.01,14.6386 0.0159,21.95801 -0.56377,7.59747 -1.72481,15.12444 -2.29741,22.72387 -0.83139,7.29119 -0.31257,14.4984 0.56747,21.7443 0.33183,7.65983 3.16384,14.55663 6.55537,21.30391 3.51309,5.84356 7.89648,11.28839 13.36769,15.39319 8.4654,4.66996 13.2168,2.43516 21.40578,-1.21499 14.46056,-9.34004 -1.07438,0.7788 -29.08005,16.4161 -1.12043,0.62561 2.11625,-1.45364 3.13962,-2.22788 3.23719,-2.44909 6.38308,-5.05055 9.57257,-7.56308 16.52297,-13.57341 35.39288,-25.16448 56.16811,-30.4551 7.59823,-2.02557 15.19734,-2.08013 22.80501,-0.23523 7.73342,2.99367 10.99095,10.10436 15.4201,16.46108 0.38076,0.38694 0.76152,0.77388 1.14229,1.16082 0,0 -36.48898,21.80865 -36.48898,21.80865 l 0,0 c -0.36169,-0.54118 -0.72337,-1.08235 -1.08506,-1.62353 -3.59627,-5.64244 -6.54313,-11.89834 -13.5633,-13.69037 -7.32296,-1.0479 -14.50872,-0.41988 -21.58763,1.82365 -2.16623,0.70772 -4.87299,1.55459 -7.00334,2.39497 -1.10548,0.43609 -4.28983,2.02877 -3.27258,1.41439 58.92538,-35.58876 38.10962,-23.60187 26.45709,-14.81155 -16.40367,14.62135 -35.76408,25.8221 -55.64936,35.07911 -9.02628,3.15232 -15.9569,3.26778 -24.0827,-2.29965 -5.70147,-4.78038 -10.58371,-10.49787 -14.26586,-16.98201 -3.57347,-7.11994 -6.81219,-14.50125 -7.24318,-22.57659 -0.92572,-7.48392 -1.87133,-14.91172 -0.9595,-22.46531 0.53032,-7.51542 1.3913,-14.98124 2.41045,-22.4448 0.0298,-7.31773 0.0252,-14.63546 0.0475,-21.9532 -0.062,-7.82017 -0.0726,-15.64913 -0.71677,-23.44928 -0.84154,-8.99208 -2.13677,-17.96204 -4.67927,-26.65043 0,0 37.48935,-19.77677 37.48935,-19.77677 z"
       inkscape:connector-curvature="0" />
    <path
       style="fill:#aa8800;fill-opacity:1"
       id="path2993"
       d="m 564.59949,853.70346 c -0.24208,8.43378 -0.19677,16.87457 -0.1565,25.31116 -0.34715,7.80989 0.21242,15.52434 1.20648,23.25915 0.86326,7.53726 2.47431,14.96926 4.2345,22.3411 1.84543,7.4298 2.5958,15.06832 2.95711,22.69719 0.30695,7.22455 0.25211,14.45596 0.26408,21.68489 -0.0325,7.36518 -0.0361,14.7305 -0.0412,22.09573 0.37659,3.86526 -0.68928,8.99452 1.51003,12.49842 0,0 -37.13464,20.9954 -37.13464,20.9954 l 0,0 c -1.80038,-4.4763 -1.84832,-9.6188 -1.92203,-14.3665 0.006,-7.3618 0.0248,-14.72359 0.0187,-22.08543 0.0265,-7.17512 0.0296,-14.35226 -0.14857,-21.52556 -0.31665,-7.38731 -0.78531,-14.80194 -2.54924,-22.01195 -1.78994,-7.50657 -3.59167,-15.04868 -4.47133,-22.72456 -1.01102,-7.91776 -1.8717,-15.76525 -1.38125,-23.77238 0.0398,-8.38339 0.0879,-16.77118 -0.1565,-25.15167 0,0 37.77041,-19.24499 37.77041,-19.24499 z"
       inkscape:connector-curvature="0" />
    <path
       style="fill:#aa8800;fill-opacity:1;filter:url(#filter3171)"
       id="path2995"
       d="m 456.70664,872.86223 c 7.54004,-5.45756 14.57716,-11.54628 21.84033,-17.35662 6.52437,-5.42124 13.35546,-10.47072 20.27434,-15.37503 15.13815,-9.70678 31.20204,-17.95735 46.60872,-27.16572 10.72234,-6.4086 -21.64184,12.48266 -32.53854,18.59007 -2.26389,1.26887 4.3105,-2.89149 6.458,-4.3487 17.85596,-11.32988 35.83388,-24.85771 56.94686,-28.89605 7.19321,-1.19418 14.50677,-1.202 21.77744,-1.27333 7.33622,-0.21841 14.54259,-0.0139 21.78951,1.09561 8.22506,1.66885 14.42198,6.66306 20.18798,12.43519 6.00351,6.37745 9.46001,14.09211 11.48696,22.4927 1.47002,7.52458 1.59138,15.23268 1.62076,22.87513 0.52164,7.97138 -1.28379,14.91538 -6.44087,21.00995 -6.35899,5.74059 -13.13757,10.68895 -18.28897,17.6108 -4.26811,6.36773 -6.8889,13.4174 -8.44854,20.87102 -1.09548,7.17419 -1.52181,14.49734 -1.02944,21.74071 0.33416,7.3593 2.95531,13.81494 7.16417,19.72356 2.69252,6.28512 7.38323,9.55581 13.02315,12.88412 7.36792,4.36713 15.0774,8.05958 21.72323,13.50118 3.90056,1.95479 10.39985,8.66865 14.96321,8.4123 0.66893,-0.0376 1.19176,-0.61256 1.78764,-0.91885 0,0 -34.13824,25.17673 -34.13824,25.17673 l 0,0 c -6.93334,-1.5321 -12.52474,-6.2876 -18.2091,-10.3122 -6.63105,-5.1739 -14.33454,-8.66079 -21.55076,-12.93771 -6.01729,-3.66306 -10.95257,-7.83111 -13.96313,-14.38954 -4.48553,-6.53197 -7.55113,-13.6691 -8.176,-21.67816 -0.80946,-7.56662 -0.26968,-15.21551 0.48733,-22.7732 1.37556,-7.93811 3.70245,-15.48804 7.82691,-22.46868 4.64157,-7.53805 10.75834,-13.11811 17.9091,-18.27174 1.01176,-0.88503 4.1425,-3.50084 4.96121,-4.6828 2.65185,-3.82847 2.92167,-8.89618 2.86977,-13.35205 -0.0444,-7.36917 0.0567,-14.78685 -1.16073,-22.08077 -1.62302,-7.71348 -4.64622,-14.68874 -10.23234,-20.42797 -5.37803,-5.11946 -11.23232,-9.20885 -18.8165,-10.12219 -7.12301,-0.85172 -14.27571,-0.6649 -21.43979,-0.57024 -7.10052,0.12833 -14.24701,0.33121 -21.19795,1.94167 -3.64199,0.96331 -7.03871,2.10094 -10.47765,3.65124 -1.14403,0.51574 -4.48557,2.24238 -3.40873,1.59801 9.81186,-5.87136 45.92399,-27.02372 29.63204,-17.28155 -14.61854,10.40285 -30.23178,17.81546 -45.83773,27.59785 -10.59745,6.64287 21.61429,-12.59213 32.45158,-18.83608 2.39492,-1.37984 -9.32319,5.69488 -7.12977,4.23357 -7.1869,4.55217 -13.96388,9.84696 -20.57004,15.1674 -7.28802,5.54204 -13.93108,11.86592 -21.47611,17.06407 0,0 -39.25931,15.8463 -39.25931,15.8463 z"
       inkscape:connector-curvature="0" />
    <path
       sodipodi:type="spiral"
       style="fill:#999999;fill-opacity:0.03437315;stroke:#000000;stroke-width:1px;stroke-linecap:butt;stroke-linejoin:miter;stroke-opacity:1"
       id="path2997"
       sodipodi:cx="382.85715"
       sodipodi:cy="603.79077"
       sodipodi:expansion="1"
       sodipodi:revolution="3"
       sodipodi:radius="318.99075"
       sodipodi:argument="-20.312662"
       sodipodi:t0="0"
       d="m 382.85715,603.79077 c 1.71903,-15.90104 22.28239,-5.52778 26.42857,2.85715 11.23588,22.72266 -10.96201,45.69586 -32.14287,49.99999 -37.8876,7.69909 -69.93573,-25.70182 -73.57141,-61.42859 -5.33552,-52.43046 40.54443,-94.62515 90.71431,-97.14283 C 461.1543,494.72082 513.77573,553.48729 515,618.07652 516.54062,699.35547 444.71462,762.5188 365.71425,762.36219 270.03422,762.17253 196.26964,677.19823 197.85715,583.79072 199.72798,473.71321 297.9021,389.31246 405.71434,392.36221 530.18785,395.88326 625.24715,507.28974 620.71428,629.50512 615.56374,768.374 490.90302,874.10712 354.28565,868.07648 201.02162,861.31101 84.603803,723.38061 92.142871,572.36213 100.51267,404.70299 251.72401,277.59244 417.14294,286.64793"
       transform="matrix(1.1832419,0,0,1.2058057,-45.295156,-193.08855)" />
    <path
       sodipodi:type="spiral"
       style="fill:none;stroke:#000000;stroke-width:1px;stroke-linecap:butt;stroke-linejoin:miter;stroke-opacity:1"
       id="path2999"
       sodipodi:cx="228.57143"
       sodipodi:cy="349.50504"
       sodipodi:expansion="1"
       sodipodi:revolution="3"
       sodipodi:radius="218.67877"
       sodipodi:argument="-20.924913"
       sodipodi:t0="0"
       d="m 228.57143,349.50504 c -5.30036,-9.59792 10.32279,-11.88005 15.95237,-8.80954 15.25581,8.32089 11.85362,29.9547 1.6667,40.71428 -18.22203,19.24637 -49.36077,13.13455 -65.4762,-5.47614 -23.65002,-27.31193 -14.53491,-69.05954 12.61899,-90.2381 36.19187,-28.22769 88.86608,-15.99107 115.00001,19.76182 32.88688,44.99136 17.47707,108.72492 -26.90466,139.76192 -53.75223,37.58997 -128.61341,18.98054 -164.52383,-34.0475 -42.31919,-62.49171 -20.495007,-148.52041 41.19034,-189.28574 71.21817,-47.06518 168.43977,-22.0168 214.04764,48.33318 51.82257,79.93612 23.54373,188.3678 -55.47601,238.80956 C 228.01857,565.61681 108.36463,534.10313 53.095311,446.40992 -8.264113,349.05383 26.487548,218.16868 122.85701,158.07655"
       transform="translate(-11.428571,-154.28571)" />
    <path
       sodipodi:type="spiral"
       style="fill:none;stroke:#000000;stroke-width:1px;stroke-linecap:butt;stroke-linejoin:miter;stroke-opacity:1"
       id="path3001"
       sodipodi:cx="448.57144"
       sodipodi:cy="815.2193"
       sodipodi:expansion="1"
       sodipodi:revolution="3"
       sodipodi:radius="195.50041"
       sodipodi:argument="-18.379372"
       sodipodi:t0="0"
       d="m 448.57144,815.2193 c 8.73841,4.44084 -1.67494,13.97015 -7.38096,14.5238 -15.46298,1.50038 -23.8034,-16.21274 -21.66665,-29.28573 3.82215,-23.38451 29.92734,-34.49053 51.19051,-28.80948 31.20454,8.33716 45.41294,43.79854 35.95232,73.09527 -12.60952,39.04793 -57.72147,56.4307 -95.00004,43.09516 -46.91127,-16.78142 -67.4968,-71.66812 -50.238,-116.90481 20.90272,-54.78769 85.62794,-78.5907 138.80957,-57.38084 62.67272,24.99509 89.70203,99.59594 64.52368,160.71435 -29.0694,70.56362 -113.56939,100.82498 -182.61911,71.66652 -78.45868,-33.13171 -111.95608,-127.5467 -78.80936,-204.52389 37.18561,-86.35677 141.52681,-123.09309 226.42865,-85.9522 94.25714,41.23344 134.23454,155.50905 93.09504,248.33342"
       transform="translate(85.71429,74.285714)" />
  </g>
</svg>
